<svg width="758" height="312" viewBox="0 0 758 312" fill="none" xmlns="http://www.w3.org/2000/svg">
<path d="M110.001 179.463C110.595 183.262 110.809 186.667 110.637 189.979C110.317 196.144 108.664 202.162 105.419 209.925L104.316 212.567L107.082 213.304L110.637 214.252C108.853 225.376 105.585 231.829 99.4338 243.209L97.1965 247.349L101.879 246.886L103.368 246.725C106.761 246.324 109.601 245.727 112.287 244.611C113.662 244.04 114.964 243.344 116.26 242.505C115.093 247.686 112.7 252.47 109.221 260.967L107.994 263.961L111.201 264.392C137.116 267.869 153.973 268.698 172.228 261.085C172.816 270.865 173.727 276.42 176.649 284H105.822C106.327 277.921 105.794 263.098 103.156 255.06C102.782 253.919 102.014 250.49 100.111 248.967C98.2058 247.444 84.9473 251.646 78.7864 251.614C75.8634 251.6 74.2037 250.791 73.8362 250.49C73.4004 250.135 71.9327 249.601 71.552 247.38C71.1712 245.159 69.864 240.25 69.2668 239.067C68.6692 237.884 64.6973 236.401 63.9358 235.259C63.1742 234.117 63.5295 233.196 64.3166 232.593C69.7117 229.781 69.2487 228.604 60.509 227.263C59.4211 227.127 57.8429 226.882 57.4621 225.739C57.0814 224.597 58.742 222.348 57.4621 219.647C55.3207 215.128 48.7292 213.728 45.6584 211.639C44.7123 210.995 44.8762 210.46 44.8967 210.127C44.8967 210.127 45.1464 209.299 45.6584 208.685C50.1309 202.797 52.2312 199.228 53.2737 191.088C53.2603 191.079 53.247 191.07 53.2336 191.062C53.5791 188.806 53.8846 186.147 54.0198 183.687H69.1008V183.503C69.8855 184.812 70.779 186.151 71.7981 187.585L72.3 188.291L73.1311 188.535L99.0246 196.152L100.81 196.677L101.825 195.116C104.233 191.417 106.362 188.4 108.122 184.484C108.803 182.968 109.425 181.328 110.001 179.463ZM138.95 47.9113C172.215 27.503 220.972 23.4697 258.519 32.6799C252.329 60.2467 243.706 71.2898 221.604 85.2287C236.681 107.385 246.472 138.638 249.76 178.903C251.03 201.854 253.257 213.892 261.505 229.922C258.078 230.677 255.266 230.857 252.142 230.377C248.76 229.858 244.877 228.546 239.342 226.115L237.143 225.151L236.09 227.309C230.21 239.356 224.096 246.78 216.047 252.012C208.746 256.758 199.682 259.812 187.322 262.682C188.459 258.993 188.985 255.687 188.663 250.71L188.392 246.5L184.829 248.76C180.304 251.631 176.051 253.941 171.916 255.777L171.091 256.138C154.582 263.24 139.411 262.989 115.097 259.86C118.921 250.794 121.64 245.231 122.028 236.899L122.306 230.928L117.86 234.922C115.006 237.486 112.755 239.002 110.368 239.993C109.094 240.523 107.735 240.92 106.163 241.236C111.318 231.478 114.313 224.509 115.915 212.749L116.213 210.565L114.082 209.996L111.104 209.201C113.796 202.315 115.31 196.412 115.63 190.238C115.99 183.304 114.837 176.212 112.426 167.212L107.542 167.464C106.389 174.666 105.101 179.01 103.562 182.434C102.221 185.417 100.673 187.758 98.6545 190.831L75.3821 183.986C73.4587 181.22 72.175 178.997 71.2444 176.669C70.2373 174.15 69.5949 171.391 69.0793 167.529L64.1008 167.86V178.687H49.0959V181.187C49.0959 183.177 48.9055 185.527 48.6457 187.707C2.17634 149.589 47.5172 46.8915 129.957 47.9113C129.855 43.7155 132.621 41.3774 136.811 37.2492C138.244 42.1415 138.419 44.4765 137.572 47.9113H138.95Z" fill="url(#paint0_linear_0_1)"/>
<path d="M69.6013 98.0651L103.872 81.3104" stroke="#F5F5F5" stroke-width="2"/>
<path d="M69.6013 98.0651L103.872 115.581" stroke="#F5F5F5" stroke-width="2"/>
<path d="M69.6013 98.0651L103.872 149.852" stroke="#F5F5F5" stroke-width="2"/>
<path d="M69.6013 132.336L103.872 81.3104" stroke="#F5F5F5" stroke-width="2"/>
<path d="M69.6013 132.336L103.872 115.581" stroke="#F5F5F5" stroke-width="2"/>
<path d="M69.6013 132.336L103.872 149.852" stroke="#F5F5F5" stroke-width="2"/>
<path d="M103.872 81.3104H138.143" stroke="#F5F5F5" stroke-width="2"/>
<path d="M103.872 81.3104L138.143 115.581" stroke="#F5F5F5" stroke-width="2"/>
<path d="M103.872 81.3104L138.143 149.852" stroke="#F5F5F5" stroke-width="2"/>
<path d="M103.872 115.581L138.143 81.3104" stroke="#F5F5F5" stroke-width="2"/>
<path d="M103.872 115.581H138.143" stroke="#F5F5F5" stroke-width="2"/>
<path d="M103.872 115.581L138.143 149.852" stroke="#F5F5F5" stroke-width="2"/>
<path d="M103.872 149.852L138.143 81.3104" stroke="#F5F5F5" stroke-width="2"/>
<path d="M103.872 149.852L138.143 115.581" stroke="#F5F5F5" stroke-width="2"/>
<path d="M103.872 149.852H138.143" stroke="#F5F5F5" stroke-width="2"/>
<path d="M138.143 81.3104H172.414" stroke="#F5F5F5" stroke-width="2"/>
<path d="M138.143 81.3104L172.414 115.581" stroke="#F5F5F5" stroke-width="2"/>
<path d="M138.143 81.3104L172.414 149.852" stroke="#F5F5F5" stroke-width="2"/>
<path d="M138.143 115.581L172.414 81.3104" stroke="#F5F5F5" stroke-width="2"/>
<path d="M138.143 115.581H172.414" stroke="#F5F5F5" stroke-width="2"/>
<path d="M138.143 115.581L172.414 149.852" stroke="#F5F5F5" stroke-width="2"/>
<path d="M138.143 149.852L172.414 81.3104" stroke="#F5F5F5" stroke-width="2"/>
<path d="M138.143 149.852L172.414 115.581" stroke="#F5F5F5" stroke-width="2"/>
<path d="M138.143 149.852H172.414" stroke="#F5F5F5" stroke-width="2"/>
<path d="M172.414 81.3104L206.685 98.0651" stroke="#F5F5F5" stroke-width="2"/>
<path d="M172.414 81.3104L206.685 132.336" stroke="#F5F5F5" stroke-width="2"/>
<path d="M172.414 81.3104L206.685 166.607" stroke="#F5F5F5" stroke-width="2"/>
<path d="M172.414 115.581L206.685 98.0651" stroke="#F5F5F5" stroke-width="2"/>
<path d="M172.414 115.581L206.685 132.336" stroke="#F5F5F5" stroke-width="2"/>
<path d="M172.414 115.581L206.685 166.607" stroke="#F5F5F5" stroke-width="2"/>
<path d="M172.414 149.852L206.685 98.0651" stroke="#F5F5F5" stroke-width="2"/>
<path d="M172.414 149.852L206.685 132.336" stroke="#F5F5F5" stroke-width="2"/>
<path d="M172.414 149.852L206.685 166.607" stroke="#F5F5F5" stroke-width="2"/>
<path d="M69.6013 104.158C72.9662 104.158 75.6939 101.43 75.6939 98.0651C75.6939 94.7002 72.9662 91.9725 69.6013 91.9725C66.2365 91.9725 63.5087 94.7002 63.5087 98.0651C63.5087 101.43 66.2365 104.158 69.6013 104.158Z" fill="#F5F5F5"/>
<path d="M69.6013 138.429C72.9662 138.429 75.6939 135.701 75.6939 132.336C75.6939 128.971 72.9662 126.243 69.6013 126.243C66.2365 126.243 63.5087 128.971 63.5087 132.336C63.5087 135.701 66.2365 138.429 69.6013 138.429Z" fill="#F5F5F5"/>
<path d="M103.872 87.403C107.237 87.403 109.965 84.6753 109.965 81.3104C109.965 77.9456 107.237 75.2178 103.872 75.2178C100.507 75.2178 97.7797 77.9456 97.7797 81.3104C97.7797 84.6753 100.507 87.403 103.872 87.403Z" fill="#F5F5F5"/>
<path d="M103.872 121.674C107.237 121.674 109.965 118.946 109.965 115.581C109.965 112.216 107.237 109.489 103.872 109.489C100.507 109.489 97.7797 112.216 97.7797 115.581C97.7797 118.946 100.507 121.674 103.872 121.674Z" fill="#F5F5F5"/>
<path d="M103.872 155.945C107.237 155.945 109.965 153.217 109.965 149.852C109.965 146.487 107.237 143.76 103.872 143.76C100.507 143.76 97.7797 146.487 97.7797 149.852C97.7797 153.217 100.507 155.945 103.872 155.945Z" fill="#F5F5F5"/>
<path d="M138.143 87.403C141.508 87.403 144.236 84.6753 144.236 81.3104C144.236 77.9456 141.508 75.2178 138.143 75.2178C134.778 75.2178 132.051 77.9456 132.051 81.3104C132.051 84.6753 134.778 87.403 138.143 87.403Z" fill="#F5F5F5"/>
<path d="M138.143 121.674C141.508 121.674 144.236 118.946 144.236 115.581C144.236 112.216 141.508 109.489 138.143 109.489C134.778 109.489 132.051 112.216 132.051 115.581C132.051 118.946 134.778 121.674 138.143 121.674Z" fill="#F5F5F5"/>
<path d="M138.143 155.945C141.508 155.945 144.236 153.217 144.236 149.852C144.236 146.487 141.508 143.76 138.143 143.76C134.778 143.76 132.051 146.487 132.051 149.852C132.051 153.217 134.778 155.945 138.143 155.945Z" fill="#F5F5F5"/>
<path d="M172.414 87.403C175.779 87.403 178.507 84.6753 178.507 81.3104C178.507 77.9456 175.779 75.2178 172.414 75.2178C169.049 75.2178 166.321 77.9456 166.321 81.3104C166.321 84.6753 169.049 87.403 172.414 87.403Z" fill="#F5F5F5"/>
<path d="M172.414 121.674C175.779 121.674 178.507 118.946 178.507 115.581C178.507 112.216 175.779 109.489 172.414 109.489C169.049 109.489 166.321 112.216 166.321 115.581C166.321 118.946 169.049 121.674 172.414 121.674Z" fill="#F5F5F5"/>
<path d="M172.414 155.945C175.779 155.945 178.507 153.217 178.507 149.852C178.507 146.487 175.779 143.76 172.414 143.76C169.049 143.76 166.321 146.487 166.321 149.852C166.321 153.217 169.049 155.945 172.414 155.945Z" fill="#F5F5F5"/>
<path d="M206.685 104.158C210.05 104.158 212.777 101.43 212.777 98.0651C212.777 94.7002 210.05 91.9725 206.685 91.9725C203.32 91.9725 200.592 94.7002 200.592 98.0651C200.592 101.43 203.32 104.158 206.685 104.158Z" fill="#F5F5F5"/>
<path d="M206.685 138.429C210.05 138.429 212.777 135.701 212.777 132.336C212.777 128.971 210.05 126.243 206.685 126.243C203.32 126.243 200.592 128.971 200.592 132.336C200.592 135.701 203.32 138.429 206.685 138.429Z" fill="#F5F5F5"/>
<path d="M206.685 172.699C210.05 172.699 212.777 169.972 212.777 166.607C212.777 163.242 210.05 160.514 206.685 160.514C203.32 160.514 200.592 163.242 200.592 166.607C200.592 169.972 203.32 172.699 206.685 172.699Z" fill="#F5F5F5"/>
<path d="M307.752 144V40.7326H339.57C346.125 40.7326 351.738 42.0772 356.411 44.7664C361.117 47.4557 364.731 51.1366 367.252 55.8092C369.773 60.4818 371.034 65.8099 371.034 71.7935C371.034 77.7098 369.773 83.0043 367.252 87.6769C364.731 92.3495 361.117 96.0472 356.411 98.7701C351.738 101.459 346.141 102.804 339.62 102.804H312.19V96.9548H339.469C344.78 96.9548 349.318 95.8791 353.083 93.7277C356.848 91.5427 359.739 88.5677 361.756 84.8027C363.773 81.0042 364.781 76.6677 364.781 71.7935C364.781 66.8856 363.773 62.5323 361.756 58.7338C359.739 54.9352 356.831 51.9602 353.033 49.8088C349.268 47.6574 344.73 46.5817 339.418 46.5817H314.055V144H307.752ZM380.728 144H374.072L411.335 40.7326H418.596L455.859 144H449.203L415.217 48.8508H414.713L380.728 144ZM390.157 105.123H439.774V110.973H390.157V105.123ZM475.121 40.7326H481.978L521.762 134.924H522.468L562.253 40.7326H569.11V144H563.059V55.7084H562.454L525.09 144H519.14L481.777 55.7084H481.171V144H475.121V40.7326ZM605.251 40.7326V144H598.948V40.7326H605.251ZM674.924 111.729H682.185L697.211 131.545L698.623 133.461L713.851 153.681H706.59L694.085 137.092L692.774 135.277L674.924 111.729ZM717.28 92.3663C717.28 103.022 715.431 112.334 711.733 120.301C708.035 128.234 702.892 134.403 696.304 138.806C689.748 143.21 682.185 145.412 673.613 145.412C665.007 145.412 657.41 143.21 650.822 138.806C644.266 134.369 639.14 128.184 635.442 120.251C631.745 112.284 629.896 102.989 629.896 92.3663C629.896 81.7101 631.745 72.4154 635.442 64.4821C639.174 56.5487 644.317 50.3803 650.872 45.9766C657.427 41.5393 665.007 39.3207 673.613 39.3207C682.185 39.3207 689.748 41.5225 696.304 45.9262C702.892 50.3298 708.035 56.5151 711.733 64.4821C715.431 72.4154 717.28 81.7101 717.28 92.3663ZM711.128 92.3663C711.128 82.7858 709.515 74.4827 706.287 67.457C703.094 60.4314 698.673 55.0024 693.026 51.1702C687.379 47.3044 680.908 45.3715 673.613 45.3715C666.318 45.3715 659.847 47.2876 654.2 51.1198C648.552 54.9184 644.115 60.3473 640.888 67.4066C637.695 74.4323 636.098 82.7522 636.098 92.3663C636.098 101.88 637.678 110.166 640.838 117.225C644.031 124.251 648.452 129.697 654.099 133.562C659.746 137.428 666.251 139.361 673.613 139.361C680.908 139.361 687.379 137.445 693.026 133.613C698.673 129.747 703.094 124.301 706.287 117.276C709.515 110.25 711.128 101.947 711.128 92.3663Z" fill="#EB4F31"/>
<path d="M436.987 263V179.48H452.763V263H436.987ZM488.943 179.48H504.719L482.447 263H466.671L488.943 179.48ZM553.351 264.74C544.999 264.74 537.788 262.923 531.717 259.288C525.685 255.653 521.026 250.569 517.739 244.034C514.491 237.499 512.867 229.901 512.867 221.24C512.867 212.579 514.491 204.981 517.739 198.446C521.026 191.911 525.685 186.827 531.717 183.192C537.788 179.557 544.999 177.74 553.351 177.74C561.703 177.74 568.895 179.557 574.927 183.192C580.998 186.827 585.657 191.911 588.905 198.446C592.192 204.981 593.835 212.579 593.835 221.24C593.835 229.901 592.192 237.499 588.905 244.034C585.657 250.569 580.998 255.653 574.927 259.288C568.895 262.923 561.703 264.74 553.351 264.74ZM553.351 249.892C558.648 249.969 563.056 248.829 566.575 246.47C570.094 244.111 572.723 240.767 574.463 236.436C576.242 232.105 577.131 227.04 577.131 221.24C577.131 215.44 576.242 210.413 574.463 206.16C572.723 201.907 570.094 198.601 566.575 196.242C563.056 193.883 558.648 192.665 553.351 192.588C548.054 192.511 543.646 193.651 540.127 196.01C536.608 198.369 533.96 201.713 532.181 206.044C530.441 210.375 529.571 215.44 529.571 221.24C529.571 227.04 530.441 232.067 532.181 236.32C533.96 240.573 536.608 243.879 540.127 246.238C543.646 248.597 548.054 249.815 553.351 249.892Z" fill="#818587"/>
<path d="M421.768 220.768C422.744 219.791 422.744 218.209 421.768 217.232L405.858 201.322C404.882 200.346 403.299 200.346 402.322 201.322C401.346 202.299 401.346 203.882 402.322 204.858L416.464 219L402.322 233.142C401.346 234.118 401.346 235.701 402.322 236.678C403.299 237.654 404.882 237.654 405.858 236.678L421.768 220.768ZM322 219V221.5L420 221.5V219V216.5L322 216.5V219Z" fill="url(#paint1_linear_0_1)"/>
<path d="M699.768 220.768C700.744 219.791 700.744 218.209 699.768 217.232L683.858 201.322C682.882 200.346 681.299 200.346 680.322 201.322C679.346 202.299 679.346 203.882 680.322 204.858L694.464 219L680.322 233.142C679.346 234.118 679.346 235.701 680.322 236.678C681.299 237.654 682.882 237.654 683.858 236.678L699.768 220.768ZM600 219V221.5L698 221.5V219V216.5L600 216.5V219Z" fill="url(#paint2_linear_0_1)"/>
<defs>
<linearGradient id="paint0_linear_0_1" x1="64.2801" y1="81.3103" x2="299.99" y2="311.751" gradientUnits="userSpaceOnUse">
<stop stop-color="#FF2129"/>
<stop offset="1" stop-color="#FFE700"/>
</linearGradient>
<linearGradient id="paint1_linear_0_1" x1="322" y1="219.5" x2="420" y2="219.5" gradientUnits="userSpaceOnUse">
<stop stop-color="#818587" stop-opacity="0.5"/>
<stop offset="1" stop-color="#818587"/>
</linearGradient>
<linearGradient id="paint2_linear_0_1" x1="600" y1="219.5" x2="698" y2="219.5" gradientUnits="userSpaceOnUse">
<stop stop-color="#818587"/>
<stop offset="1" stop-color="#818587" stop-opacity="0.5"/>
</linearGradient>
</defs>
</svg>
